<?xml version="1.0" encoding="utf-8"?>
<!-- Generator: Adobe Illustrator 24.1.0, SVG Export Plug-In . SVG Version: 6.00 Build 0)  -->
<svg version="1.1" id="Layer_1" xmlns="http://www.w3.org/2000/svg" xmlns:xlink="http://www.w3.org/1999/xlink" x="0px" y="0px"
	 viewBox="0 0 100 100" style="enable-background:new 0 0 100 100;" xml:space="preserve">
<style type="text/css">
	.st0{fill:#17CF97;}
</style>
<g>
	<path class="st0" d="M50,26c0,13.3-10.8,24-24,24h-24V26c0-13.3,10.8-24,24-24S50,12.7,50,26z"/>
	<path class="st0" d="M50,74c0-13.3,10.8-24,24-24h24v24c0,13.3-10.8,24-24,24C60.8,98.1,50,87.3,50,74z"/>
	<path class="st0" d="M1.9,74c0,13.3,10.8,24,24,24h24V74c0-13.3-10.8-24-24-24S1.9,60.8,1.9,74z"/>
	<path class="st0" d="M98.1,26c0-13.3-10.8-24-24-24H50v24c0,13.3,10.8,24,24,24C87.3,50,98.1,39.2,98.1,26z"/>
</g>
</svg>
